<svg width="280" height="80" viewBox="0 0 280 80" fill="none" xmlns="http://www.w3.org/2000/svg">
<path d="M85.6257 40.9028C83.8505 40.9028 82.2714 40.5389 80.889 39.811C79.5061 39.083 78.4132 38.0472 77.6098 36.7034C76.8246 35.3408 76.4324 33.717 76.4324 31.8319V15.118H81.6458V31.58C81.6458 32.9425 82.0191 34.025 82.7664 34.8276C83.5326 35.6302 84.5139 36.0314 85.7096 36.0314C86.887 36.0314 87.8588 35.6488 88.6244 34.8836C89.3906 34.0996 89.774 33.0545 89.774 31.748V15.118H94.819V31.748C94.819 33.6517 94.4262 35.2942 93.6417 36.6753C92.8565 38.0379 91.7731 39.083 90.3901 39.811C89.0261 40.5389 87.4381 40.9028 85.6257 40.9028ZM99.5317 40.3149V15.118H107.436C109.117 15.118 110.454 15.4447 111.444 16.0979C112.453 16.7325 113.172 17.5071 113.602 18.4216C114.032 19.3175 114.247 20.1761 114.247 20.9973C114.247 21.7252 114.106 22.4158 113.826 23.069C113.546 23.7036 113.153 24.2636 112.649 24.7488C113.807 25.4767 114.742 26.4473 115.452 27.6605C116.162 28.855 116.517 30.1895 116.517 31.664C116.517 33.1011 116.162 34.4823 115.452 35.8074C114.742 37.1326 113.686 38.2152 112.284 39.055C110.883 39.8949 109.155 40.3149 107.099 40.3149H99.5317ZM104.408 35.7795H106.595C107.716 35.7795 108.613 35.5648 109.286 35.1356C109.977 34.6876 110.472 34.137 110.771 33.4838C111.089 32.8118 111.248 32.1492 111.248 31.496C111.248 30.8614 111.098 30.2175 110.799 29.5642C110.5 28.8923 110.005 28.3324 109.313 27.8845C108.641 27.4365 107.735 27.2125 106.595 27.2125H104.408V35.7795ZM104.408 23.685H106.595C107.473 23.685 108.183 23.4797 108.725 23.069C109.267 22.6585 109.538 22.0612 109.538 21.2773C109.538 20.4561 109.267 19.8401 108.725 19.4295C108.202 19.0189 107.529 18.8136 106.707 18.8136H104.408V23.685ZM120.708 40.3149V15.118H125.921V40.3149H120.708ZM151.778 41.1548L150.124 39.167C149.152 39.6896 148.116 40.0909 147.013 40.3709C145.929 40.6695 144.799 40.8188 143.622 40.8188C141.772 40.8188 140.043 40.4829 138.437 39.811C136.83 39.1204 135.41 38.1778 134.176 36.9833C132.961 35.7888 132.009 34.3983 131.317 32.8118C130.626 31.2254 130.281 29.5269 130.281 27.7165C130.281 25.906 130.626 24.2076 131.317 22.6211C132.009 21.0346 132.961 19.6442 134.176 18.4496C135.41 17.2551 136.83 16.3219 138.437 15.6499C140.043 14.9594 141.772 14.6141 143.622 14.6141C145.471 14.6141 147.2 14.9594 148.807 15.6499C150.414 16.3219 151.824 17.2551 153.039 18.4496C154.272 19.6442 155.235 21.0346 155.926 22.6211C156.617 24.2076 156.963 25.906 156.963 27.7165C156.963 29.3963 156.655 30.9921 156.038 32.5039C155.44 33.997 154.608 35.3222 153.543 36.4794L157.439 41.1548H151.778ZM143.622 35.9475C144.78 35.9475 145.882 35.7141 146.929 35.2476L140.651 27.7165H146.256L150.236 32.4759C150.704 31.804 151.059 31.0667 151.301 30.2641C151.563 29.4616 151.694 28.6123 151.694 27.7165C151.694 26.186 151.329 24.8048 150.601 23.573C149.891 22.3225 148.928 21.3333 147.714 20.6054C146.499 19.8588 145.135 19.4855 143.622 19.4855C142.108 19.4855 140.735 19.8588 139.502 20.6054C138.287 21.3333 137.325 22.3225 136.615 23.573C135.905 24.8048 135.55 26.186 135.55 27.7165C135.55 29.2283 135.905 30.6094 136.615 31.86C137.325 33.1105 138.287 34.109 139.502 34.8556C140.735 35.5835 142.108 35.9475 143.622 35.9475ZM169.696 40.9028C167.921 40.9028 166.343 40.5389 164.96 39.811C163.577 39.083 162.484 38.0472 161.68 36.7034C160.896 35.3408 160.504 33.717 160.504 31.8319V15.118H165.716V31.58C165.716 32.9425 166.09 34.025 166.838 34.8276C167.604 35.6302 168.585 36.0314 169.781 36.0314C170.958 36.0314 171.929 35.6488 172.696 34.8836C173.462 34.0996 173.845 33.0545 173.845 31.748V15.118H178.89V31.748C178.89 33.6517 178.497 35.2942 177.712 36.6753C176.928 38.0379 175.844 39.083 174.461 39.811C173.097 40.5389 171.509 40.9028 169.696 40.9028ZM183.771 40.3149V15.118H188.984V40.3149H183.771ZM193.007 19.6535V15.118H210.552V19.6535H204.387V40.3149H199.173V19.6535H193.007ZM224.067 40.8188C222.217 40.8188 220.488 40.4829 218.881 39.811C217.274 39.1204 215.854 38.1778 214.621 36.9833C213.407 35.7888 212.454 34.3983 211.762 32.8118C211.071 31.2254 210.725 29.5269 210.725 27.7165C210.725 25.906 211.071 24.2076 211.762 22.6211C212.454 21.0346 213.407 19.6442 214.621 18.4496C215.854 17.2551 217.274 16.3219 218.881 15.6499C220.488 14.9594 222.217 14.6141 224.067 14.6141C225.916 14.6141 227.645 14.9594 229.252 15.6499C230.859 16.3219 232.269 17.2551 233.484 18.4496C234.717 19.6442 235.679 21.0346 236.371 22.6211C237.062 24.2076 237.408 25.906 237.408 27.7165C237.408 29.5269 237.062 31.2254 236.371 32.8118C235.679 34.3983 234.717 35.7888 233.484 36.9833C232.269 38.1778 230.859 39.1204 229.252 39.811C227.645 40.4829 225.916 40.8188 224.067 40.8188ZM224.067 35.9475C225.58 35.9475 226.944 35.5835 228.158 34.8556C229.373 34.109 230.335 33.1105 231.045 31.86C231.774 30.6094 232.139 29.2283 232.139 27.7165C232.139 26.186 231.774 24.8048 231.045 23.573C230.335 22.3225 229.373 21.3333 228.158 20.6054C226.944 19.8588 225.58 19.4855 224.067 19.4855C222.553 19.4855 221.18 19.8588 219.946 20.6054C218.732 21.3333 217.769 22.3225 217.059 23.573C216.35 24.8048 215.995 26.186 215.995 27.7165C215.995 29.2283 216.35 30.6094 217.059 31.86C217.769 33.1105 218.732 34.109 219.946 34.8556C221.18 35.5835 222.553 35.9475 224.067 35.9475ZM250.141 40.9028C248.366 40.9028 246.787 40.5389 245.405 39.811C244.022 39.083 242.929 38.0472 242.126 36.7034C241.34 35.3408 240.948 33.717 240.948 31.8319V15.118H246.162V31.58C246.162 32.9425 246.535 34.025 247.282 34.8276C248.048 35.6302 249.03 36.0314 250.225 36.0314C251.403 36.0314 252.375 35.6488 253.14 34.8836C253.906 34.0996 254.29 33.0545 254.29 31.748V15.118H259.335V31.748C259.335 33.6517 258.942 35.2942 258.157 36.6753C257.372 38.0379 256.289 39.083 254.906 39.811C253.542 40.5389 251.954 40.9028 250.141 40.9028ZM270.522 40.8748C268.99 40.8748 267.532 40.5948 266.15 40.035C264.786 39.4563 263.692 38.7657 262.871 37.9632L264.244 32.3639C264.898 33.5024 265.823 34.4543 267.018 35.2195C268.215 35.9661 269.438 36.3394 270.691 36.3394C271.718 36.3394 272.521 36.0594 273.101 35.4995C273.699 34.9396 273.998 34.2583 273.998 33.4557C273.998 32.8025 273.839 32.2612 273.521 31.8319C273.222 31.4027 272.858 31.0481 272.428 30.7681C272.017 30.4881 271.652 30.2735 271.335 30.1242L268.364 28.6404C267.505 28.2111 266.682 27.7071 265.898 27.1286C265.113 26.5313 264.468 25.794 263.964 24.9168C263.477 24.0396 263.235 22.957 263.235 21.6692C263.235 20.2507 263.552 19.0096 264.188 17.9457C264.841 16.8818 265.757 16.0513 266.935 15.454C268.112 14.8568 269.494 14.5581 271.083 14.5581C272.577 14.5581 273.904 14.8008 275.063 15.286C276.24 15.7526 277.193 16.2566 277.921 16.7979L276.632 22.2571C275.885 21.2866 274.988 20.5121 273.941 19.9334C272.914 19.3362 271.886 19.0375 270.858 19.0375C269.943 19.0375 269.233 19.2709 268.728 19.7374C268.242 20.2041 268 20.7827 268 21.4733C268 21.9025 268.093 22.2852 268.28 22.6211C268.485 22.957 268.775 23.2557 269.149 23.517C269.523 23.7783 269.962 24.0396 270.466 24.3009L273.465 25.7847C273.97 26.0273 274.521 26.3446 275.119 26.7366C275.717 27.1099 276.296 27.5858 276.856 28.1644C277.417 28.743 277.875 29.4429 278.23 30.2641C278.585 31.0667 278.763 32.0279 278.763 33.1478C278.763 34.6036 278.426 35.9194 277.754 37.0953C277.081 38.2525 276.128 39.1764 274.894 39.867C273.68 40.5389 272.222 40.8748 270.522 40.8748Z" fill="white"/>
<path d="M77.1211 69.2913V56.168H80.5366V57.6115C81.0039 56.9991 81.5803 56.5325 82.2664 56.2117C82.9677 55.8909 83.6973 55.7305 84.4566 55.7305C85.2297 55.7305 85.96 55.8909 86.6461 56.2117C87.3323 56.5325 87.9087 56.9991 88.376 57.6115C88.8868 56.9991 89.5218 56.5325 90.2811 56.2117C91.0397 55.8909 91.8646 55.7305 92.7551 55.7305C93.6896 55.7305 94.5656 55.9492 95.3829 56.3867C96.2002 56.8095 96.8649 57.4366 97.3757 58.2677C97.8865 59.0842 98.1419 60.083 98.1419 61.2641V69.2913H94.3316V61.811C94.3316 61.1111 94.1273 60.4914 93.7187 59.9518C93.31 59.4123 92.7185 59.1426 91.9453 59.1426C91.536 59.1426 91.1419 59.2446 90.7629 59.4488C90.3978 59.6383 90.0982 59.93 89.8649 60.3237C89.646 60.7028 89.5363 61.184 89.5363 61.7673V69.2913H85.726V61.811C85.726 61.3444 85.6314 60.9069 85.4416 60.4987C85.2663 60.0904 84.9964 59.7623 84.6313 59.5144C84.2813 59.2665 83.8506 59.1426 83.3397 59.1426C82.9311 59.1426 82.537 59.2446 82.1573 59.4488C81.7922 59.6383 81.4933 59.93 81.2593 60.3237C81.0405 60.7028 80.9307 61.184 80.9307 61.7673V69.2913H77.1211ZM107.579 69.7285C106.105 69.7285 104.806 69.4223 103.682 68.81C102.558 68.1978 101.682 67.3593 101.054 66.2948C100.427 65.2157 100.113 63.9836 100.113 62.5984C100.113 61.2715 100.419 60.0977 101.032 59.0769C101.646 58.0417 102.47 57.2251 103.507 56.6272C104.558 56.0294 105.718 55.7305 106.988 55.7305C108.287 55.7305 109.448 56.0294 110.47 56.6272C111.492 57.2105 112.295 58.0125 112.878 59.0332C113.477 60.0539 113.777 61.2131 113.777 62.5109V63.845H105.762C105.397 63.845 105.047 63.823 104.711 63.7795C104.375 63.736 104.04 63.685 103.703 63.6264C103.879 64.5014 104.309 65.2157 104.996 65.77C105.696 66.3093 106.587 66.5789 107.667 66.5789C108.499 66.5789 109.244 66.4113 109.901 66.0762C110.572 65.7404 111.12 65.3253 111.543 64.8296L112.375 68.2412C111.718 68.737 110.973 69.1092 110.142 69.3568C109.324 69.605 108.47 69.7285 107.579 69.7285ZM103.616 61.3298C104.346 61.1694 105.061 61.0892 105.762 61.0892H108.083C108.492 61.0892 108.878 61.1038 109.244 61.1329C109.609 61.1621 109.952 61.2131 110.273 61.2861C110.054 60.4987 109.652 59.879 109.068 59.4269C108.499 58.9749 107.791 58.7489 106.944 58.7489C106.141 58.7489 105.441 58.9822 104.842 59.4488C104.258 59.9008 103.85 60.5278 103.616 61.3298ZM121.823 69.6415C120.597 69.6415 119.487 69.3278 118.494 68.7004C117.502 68.0737 116.706 67.2428 116.107 66.2072C115.524 65.1571 115.232 63.9981 115.232 62.7296C115.232 61.461 115.524 60.3018 116.107 59.2519C116.706 58.202 117.502 57.3709 118.494 56.7585C119.487 56.1315 120.597 55.818 121.823 55.818C122.523 55.818 123.173 55.92 123.771 56.1242C124.37 56.3283 124.91 56.62 125.392 56.9991V48.2939H129.202V69.2913H125.917V68.0006C125.421 68.5115 124.823 68.9121 124.122 69.2037C123.421 69.4954 122.655 69.6415 121.823 69.6415ZM122.26 66.2948C122.903 66.2948 123.487 66.1341 124.012 65.8135C124.538 65.4929 124.954 65.0626 125.26 64.5234C125.582 63.9836 125.742 63.3858 125.742 62.7296C125.742 62.0735 125.582 61.4756 125.26 60.9361C124.954 60.3966 124.538 59.9664 124.012 59.6456C123.487 59.3248 122.903 59.1644 122.26 59.1644C121.618 59.1644 121.034 59.3248 120.509 59.6456C119.983 59.9664 119.56 60.3966 119.239 60.9361C118.933 61.4756 118.779 62.0735 118.779 62.7296C118.779 63.3858 118.933 63.9836 119.239 64.5234C119.56 65.0626 119.983 65.4929 120.509 65.8135C121.034 66.1341 121.618 66.2948 122.26 66.2948ZM132.129 69.2913V56.168H135.939V69.2913H132.129ZM134.034 54.265C133.465 54.265 132.983 54.0682 132.589 53.6745C132.195 53.2808 131.998 52.7996 131.998 52.231C131.998 51.6476 132.195 51.1665 132.589 50.7874C132.983 50.3937 133.465 50.1968 134.034 50.1968C134.618 50.1968 135.1 50.3937 135.48 50.7874C135.874 51.1665 136.071 51.6476 136.071 52.231C136.071 52.7996 135.874 53.2808 135.48 53.6745C135.1 54.0682 134.618 54.265 134.034 54.265ZM145.297 69.7285C143.998 69.7285 142.809 69.4154 141.729 68.788C140.648 68.1612 139.787 67.3152 139.144 66.2513C138.517 65.1867 138.203 64.0126 138.203 62.7296C138.203 61.4318 138.517 60.258 139.144 59.2082C139.787 58.1437 140.648 57.298 141.729 56.671C142.809 56.044 143.998 55.7305 145.297 55.7305C146.203 55.7305 147.057 55.8836 147.86 56.1898C148.677 56.4815 149.4 56.9189 150.027 57.5021L149.042 61.3736C148.677 60.7757 148.188 60.258 147.575 59.8206C146.976 59.3686 146.268 59.1426 145.451 59.1426C144.764 59.1426 144.151 59.303 143.612 59.6238C143.071 59.9445 142.648 60.3747 142.342 60.9142C142.035 61.4538 141.882 62.0589 141.882 62.7296C141.882 63.3858 142.035 63.9911 142.342 64.5448C142.648 65.0847 143.071 65.5149 143.612 65.8356C144.151 66.1562 144.764 66.3168 145.451 66.3168C146.268 66.3168 146.976 66.0982 147.575 65.6604C148.188 65.2088 148.677 64.6834 149.042 64.0856L150.027 67.9571C149.4 68.5404 148.677 68.9852 147.86 69.2913C147.057 69.583 146.203 69.7285 145.297 69.7285ZM157.921 69.6415C156.709 69.6415 155.607 69.3278 154.614 68.7004C153.622 68.0737 152.826 67.2428 152.227 66.2072C151.643 65.1571 151.351 63.9981 151.351 62.7296C151.351 61.461 151.643 60.3018 152.227 59.2519C152.826 58.202 153.622 57.3709 154.614 56.7585C155.607 56.1315 156.709 55.818 157.921 55.818C158.767 55.818 159.541 55.9711 160.241 56.2773C160.942 56.5689 161.54 56.9772 162.037 57.5021V56.168H165.322V69.2913H162.037V67.9571C161.54 68.4819 160.942 68.8976 160.241 69.2037C159.541 69.4954 158.767 69.6415 157.921 69.6415ZM158.38 66.2948C159.022 66.2948 159.606 66.1341 160.132 65.8135C160.658 65.4929 161.074 65.0626 161.38 64.5234C161.701 63.9836 161.862 63.3858 161.862 62.7296C161.862 62.0735 161.701 61.4756 161.38 60.9361C161.074 60.3966 160.658 59.9664 160.132 59.6456C159.606 59.3248 159.022 59.1644 158.38 59.1644C157.738 59.1644 157.154 59.3248 156.628 59.6456C156.103 59.9664 155.679 60.3966 155.358 60.9361C155.052 61.4756 154.899 62.0735 154.899 62.7296C154.899 63.3858 155.052 63.9836 155.358 64.5234C155.679 65.0626 156.103 65.4929 156.628 65.8135C157.154 66.1341 157.738 66.2948 158.38 66.2948ZM168.249 69.2913V48.2939H172.059V69.2913H168.249ZM185.852 69.7285C184.961 69.7285 184.057 69.583 183.137 69.2913C182.231 68.9996 181.524 68.6059 181.013 68.1102L181.955 64.5234C182.378 65.1061 182.962 65.617 183.706 66.0541C184.465 66.4919 185.246 66.7105 186.049 66.7105C186.589 66.7105 186.976 66.6085 187.21 66.4044C187.457 66.2003 187.582 65.9521 187.582 65.6604C187.582 65.3253 187.457 65.0847 187.21 64.9385C186.961 64.7785 186.706 64.6469 186.443 64.5448L184.604 63.845C184.195 63.685 183.728 63.4658 183.203 63.1886C182.677 62.9119 182.217 62.5182 181.823 62.0078C181.443 61.4975 181.253 60.8267 181.253 59.9956C181.253 59.2374 181.443 58.5374 181.823 57.8958C182.202 57.2543 182.75 56.7366 183.465 56.3429C184.195 55.9346 185.071 55.7305 186.093 55.7305C187.042 55.7305 187.925 55.8909 188.742 56.2117C189.575 56.5325 190.181 56.8897 190.56 57.2834L189.684 60.7392C189.187 60.0977 188.596 59.6092 187.91 59.2738C187.239 58.9239 186.597 58.7489 185.983 58.7489C185.516 58.7489 185.173 58.8437 184.955 59.0332C184.735 59.2228 184.626 59.4415 184.626 59.6893C184.626 59.879 184.698 60.0685 184.845 60.258C185.006 60.433 185.268 60.5934 185.633 60.7392L187.341 61.3736C187.837 61.5485 188.363 61.7818 188.917 62.0735C189.487 62.3651 189.969 62.7734 190.363 63.2982C190.757 63.8085 190.954 64.5159 190.954 65.4198C190.954 66.6885 190.479 67.7241 189.53 68.5259C188.596 69.3278 187.37 69.7285 185.852 69.7285ZM199.957 69.7285C198.483 69.7285 197.184 69.4223 196.059 68.81C194.936 68.1978 194.06 67.3593 193.431 66.2948C192.804 65.2157 192.49 63.9836 192.49 62.5984C192.49 61.2715 192.796 60.0977 193.41 59.0769C194.023 58.0417 194.848 57.2251 195.884 56.6272C196.935 56.0294 198.096 55.7305 199.366 55.7305C200.665 55.7305 201.826 56.0294 202.847 56.6272C203.869 57.2105 204.672 58.0125 205.256 59.0332C205.855 60.0539 206.154 61.2131 206.154 62.5109V63.845H198.14C197.775 63.845 197.424 63.823 197.088 63.7795C196.753 63.736 196.417 63.685 196.081 63.6264C196.257 64.5014 196.687 65.2157 197.373 65.77C198.074 66.3093 198.965 66.5789 200.045 66.5789C200.877 66.5789 201.621 66.4113 202.278 66.0762C202.95 65.7404 203.497 65.3253 203.92 64.8296L204.753 68.2412C204.095 68.737 203.351 69.1092 202.519 69.3568C201.702 69.605 200.848 69.7285 199.957 69.7285ZM195.994 61.3298C196.723 61.1694 197.439 61.0892 198.14 61.0892H200.46C200.869 61.0892 201.256 61.1038 201.621 61.1329C201.986 61.1621 202.329 61.2131 202.65 61.2861C202.431 60.4987 202.03 59.879 201.446 59.4269C200.877 58.9749 200.168 58.7489 199.322 58.7489C198.519 58.7489 197.818 58.9822 197.22 59.4488C196.636 59.9008 196.227 60.5278 195.994 61.3298ZM208.266 69.2913V56.168H211.682V58.4208C212.135 57.6626 212.704 57.0793 213.39 56.671C214.091 56.2481 214.908 56.0367 215.843 56.0367L216.675 59.4051C216.397 59.3176 216.083 59.2738 215.733 59.2738C214.638 59.2738 213.755 59.6311 213.084 60.3455C212.412 61.0454 212.076 62.0515 212.076 63.3637V69.2913H208.266ZM224.226 69.9477L217.021 56.168H221.248L223.306 60.3893C223.496 60.7539 223.671 61.1184 223.832 61.4829C223.992 61.8328 224.153 62.2338 224.313 62.6859C224.474 62.2338 224.634 61.8328 224.795 61.4829C224.955 61.1184 225.131 60.7539 225.321 60.3893L227.379 56.168H231.429L224.226 69.9477ZM233.036 69.2913V56.168H236.847V69.2913H233.036ZM234.941 54.265C234.372 54.265 233.89 54.0682 233.496 53.6745C233.102 53.2808 232.905 52.7996 232.905 52.231C232.905 51.6476 233.102 51.1665 233.496 50.7874C233.89 50.3937 234.372 50.1968 234.941 50.1968C235.525 50.1968 236.007 50.3937 236.387 50.7874C236.781 51.1665 236.978 51.6476 236.978 52.231C236.978 52.7996 236.781 53.2808 236.387 53.6745C236.007 54.0682 235.525 54.265 234.941 54.265ZM246.205 69.7285C244.905 69.7285 243.715 69.4154 242.635 68.788C241.555 68.1612 240.694 67.3152 240.051 66.2513C239.424 65.1867 239.11 64.0126 239.11 62.7296C239.11 61.4318 239.424 60.258 240.051 59.2082C240.694 58.1437 241.555 57.298 242.635 56.671C243.715 56.044 244.905 55.7305 246.205 55.7305C247.109 55.7305 247.964 55.8836 248.767 56.1898C249.584 56.4815 250.307 56.9189 250.934 57.5021L249.949 61.3736C249.584 60.7757 249.095 60.258 248.482 59.8206C247.883 59.3686 247.176 59.1426 246.358 59.1426C245.672 59.1426 245.059 59.303 244.519 59.6238C243.978 59.9445 243.555 60.3747 243.249 60.9142C242.942 61.4538 242.788 62.0589 242.788 62.7296C242.788 63.3858 242.942 63.9911 243.249 64.5448C243.555 65.0847 243.978 65.5149 244.519 65.8356C245.059 66.1562 245.672 66.3168 246.358 66.3168C247.176 66.3168 247.883 66.0982 248.482 65.6604C249.095 65.2088 249.584 64.6834 249.949 64.0856L250.934 67.9571C250.307 68.5404 249.584 68.9852 248.767 69.2913C247.964 69.583 247.109 69.7285 246.205 69.7285ZM259.725 69.7285C258.251 69.7285 256.952 69.4223 255.827 68.81C254.704 68.1978 253.828 67.3593 253.2 66.2948C252.572 65.2157 252.259 63.9836 252.259 62.5984C252.259 61.2715 252.565 60.0977 253.178 59.0769C253.791 58.0417 254.616 57.2251 255.653 56.6272C256.703 56.0294 257.864 55.7305 259.134 55.7305C260.433 55.7305 261.594 56.0294 262.615 56.6272C263.638 57.2105 264.44 58.0125 265.024 59.0332C265.623 60.0539 265.922 61.2131 265.922 62.5109V63.845H257.908C257.543 63.845 257.193 63.823 256.857 63.7795C256.521 63.736 256.186 63.685 255.849 63.6264C256.025 64.5014 256.455 65.2157 257.142 65.77C257.842 66.3093 258.733 66.5789 259.813 66.5789C260.645 66.5789 261.389 66.4113 262.047 66.0762C262.718 65.7404 263.265 65.3253 263.689 64.8296L264.521 68.2412C263.864 68.737 263.119 69.1092 262.288 69.3568C261.47 69.605 260.616 69.7285 259.725 69.7285ZM255.762 61.3298C256.492 61.1694 257.207 61.0892 257.908 61.0892H260.229C260.638 61.0892 261.024 61.1038 261.389 61.1329C261.755 61.1621 262.098 61.2131 262.419 61.2861C262.2 60.4987 261.798 59.879 261.214 59.4269C260.645 58.9749 259.937 58.7489 259.09 58.7489C258.287 58.7489 257.587 58.9822 256.988 59.4488C256.404 59.9008 255.996 60.5278 255.762 61.3298ZM272.348 69.7285C271.458 69.7285 270.553 69.583 269.633 69.2913C268.728 68.9996 268.02 68.6059 267.509 68.1102L268.451 64.5234C268.874 65.1061 269.458 65.617 270.203 66.0541C270.961 66.4919 271.743 66.7105 272.545 66.7105C273.085 66.7105 273.472 66.6085 273.706 66.4044C273.954 66.2003 274.078 65.9521 274.078 65.6604C274.078 65.3253 273.954 65.0847 273.706 64.9385C273.458 64.7785 273.202 64.6469 272.939 64.5448L271.1 63.845C270.691 63.685 270.224 63.4658 269.699 63.1886C269.173 62.9119 268.713 62.5182 268.319 62.0078C267.94 61.4975 267.75 60.8267 267.75 59.9956C267.75 59.2374 267.94 58.5374 268.319 57.8958C268.698 57.2543 269.246 56.7366 269.962 56.3429C270.691 55.9346 271.567 55.7305 272.589 55.7305C273.538 55.7305 274.421 55.8909 275.239 56.2117C276.071 56.5325 276.677 56.8897 277.056 57.2834L276.18 60.7392C275.684 60.0977 275.092 59.6092 274.406 59.2738C273.735 58.9239 273.093 58.7489 272.48 58.7489C272.012 58.7489 271.669 58.8437 271.451 59.0332C271.231 59.2228 271.122 59.4415 271.122 59.6893C271.122 59.879 271.195 60.0685 271.341 60.258C271.502 60.433 271.764 60.5934 272.129 60.7392L273.837 61.3736C274.333 61.5485 274.859 61.7818 275.413 62.0735C275.983 62.3651 276.465 62.7734 276.859 63.2982C277.253 63.8085 277.45 64.5159 277.45 65.4198C277.45 66.6885 276.976 67.7241 276.027 68.5259C275.092 69.3278 273.867 69.7285 272.348 69.7285Z" fill="white"/>
<path d="M32.4775 74.9607C50.4143 74.9607 64.955 60.4364 64.955 42.5198C64.955 24.6032 50.4143 10.0789 32.4775 10.0789C14.5407 10.0789 0 24.6032 0 42.5198C0 60.4364 14.5407 74.9607 32.4775 74.9607Z" fill="#379634"/>
<path d="M27.0646 56.938C27.0646 57.9333 27.8724 58.7403 28.8689 58.7403H36.0861C37.0826 58.7403 37.8904 57.9333 37.8904 56.938V47.9266H46.9119C47.9084 47.9266 48.7162 47.1197 48.7162 46.1243V38.9153C48.7162 37.9199 47.9084 37.113 46.9119 37.113H37.8904V28.1016C37.8904 27.1062 37.0826 26.2993 36.0861 26.2993H28.8689C27.8724 26.2993 27.0646 27.1062 27.0646 28.1016V37.113H18.0431C17.0466 37.113 16.2388 37.9199 16.2388 38.9153V46.1243C16.2388 47.1197 17.0466 47.9266 18.0431 47.9266H27.0646V56.938Z" fill="white"/>
</svg>
